<mxfile host="app.diagrams.net" modified="2024-07-18T02:41:24.232Z" agent="Mozilla/5.0 (Windows NT 10.0; Win64; x64) AppleWebKit/537.36 (KHTML, like Gecko) Chrome/126.0.0.0 Safari/537.36 Edg/126.0.0.0" etag="O0ranNQn4yFkO4ipBGsd" version="24.6.4" type="github" pages="4">
  <diagram name="Trang-1" id="nWZG03A3ksPojRO9jJdO">
    <mxGraphModel dx="786" dy="859" grid="0" gridSize="10" guides="1" tooltips="1" connect="1" arrows="1" fold="1" page="0" pageScale="1" pageWidth="827" pageHeight="1169" math="0" shadow="0">
      <root>
        <mxCell id="0" />
        <mxCell id="1" parent="0" />
        <mxCell id="7pQK18nFPCm8TZFiN6Zl-1" value="Admin" style="shape=umlActor;verticalLabelPosition=bottom;verticalAlign=top;html=1;" parent="1" vertex="1">
          <mxGeometry x="110" y="130" width="30" height="60" as="geometry" />
        </mxCell>
        <mxCell id="7pQK18nFPCm8TZFiN6Zl-5" value="" style="endArrow=open;endFill=1;endSize=12;html=1;rounded=0;entryX=0;entryY=0.5;entryDx=0;entryDy=0;" parent="1" source="7pQK18nFPCm8TZFiN6Zl-1" target="7pQK18nFPCm8TZFiN6Zl-6" edge="1">
          <mxGeometry width="160" relative="1" as="geometry">
            <mxPoint x="330" y="220" as="sourcePoint" />
            <mxPoint x="240" y="160" as="targetPoint" />
          </mxGeometry>
        </mxCell>
        <mxCell id="7pQK18nFPCm8TZFiN6Zl-6" value="Quản lý tài khoản" style="ellipse;whiteSpace=wrap;html=1;" parent="1" vertex="1">
          <mxGeometry x="250" y="125" width="140" height="70" as="geometry" />
        </mxCell>
        <mxCell id="7pQK18nFPCm8TZFiN6Zl-7" value="" style="endArrow=block;dashed=1;endFill=0;endSize=12;html=1;rounded=0;entryX=1;entryY=0;entryDx=0;entryDy=0;exitX=0;exitY=0.626;exitDx=0;exitDy=0;exitPerimeter=0;" parent="1" source="7pQK18nFPCm8TZFiN6Zl-14" target="7pQK18nFPCm8TZFiN6Zl-6" edge="1">
          <mxGeometry width="160" relative="1" as="geometry">
            <mxPoint x="440" y="10" as="sourcePoint" />
            <mxPoint x="470" y="90" as="targetPoint" />
          </mxGeometry>
        </mxCell>
        <mxCell id="7pQK18nFPCm8TZFiN6Zl-8" value="" style="endArrow=block;dashed=1;endFill=0;endSize=12;html=1;rounded=0;entryX=1;entryY=0.5;entryDx=0;entryDy=0;exitX=0;exitY=0.5;exitDx=0;exitDy=0;" parent="1" source="7pQK18nFPCm8TZFiN6Zl-15" target="7pQK18nFPCm8TZFiN6Zl-6" edge="1">
          <mxGeometry width="160" relative="1" as="geometry">
            <mxPoint x="470" y="110" as="sourcePoint" />
            <mxPoint x="490" y="160" as="targetPoint" />
          </mxGeometry>
        </mxCell>
        <mxCell id="7pQK18nFPCm8TZFiN6Zl-9" value="" style="endArrow=block;dashed=1;endFill=0;endSize=12;html=1;rounded=0;entryX=1;entryY=1;entryDx=0;entryDy=0;exitX=0.022;exitY=0.402;exitDx=0;exitDy=0;exitPerimeter=0;" parent="1" source="7pQK18nFPCm8TZFiN6Zl-16" target="7pQK18nFPCm8TZFiN6Zl-6" edge="1">
          <mxGeometry width="160" relative="1" as="geometry">
            <mxPoint x="410" y="280" as="sourcePoint" />
            <mxPoint x="480" y="230" as="targetPoint" />
          </mxGeometry>
        </mxCell>
        <mxCell id="7pQK18nFPCm8TZFiN6Zl-11" value="&amp;lt;&amp;lt;extend&amp;gt;&amp;gt;" style="text;align=center;fontStyle=1;verticalAlign=middle;spacingLeft=3;spacingRight=3;strokeColor=none;rotatable=0;points=[[0,0.5],[1,0.5]];portConstraint=eastwest;html=1;" parent="1" vertex="1">
          <mxGeometry x="340" y="90" width="90" height="20" as="geometry" />
        </mxCell>
        <mxCell id="7pQK18nFPCm8TZFiN6Zl-12" value="&amp;lt;&amp;lt;extend&amp;gt;&amp;gt;" style="text;align=center;fontStyle=1;verticalAlign=middle;spacingLeft=3;spacingRight=3;strokeColor=none;rotatable=0;points=[[0,0.5],[1,0.5]];portConstraint=eastwest;html=1;" parent="1" vertex="1">
          <mxGeometry x="350" y="220" width="80" height="26" as="geometry" />
        </mxCell>
        <mxCell id="7pQK18nFPCm8TZFiN6Zl-13" value="&amp;lt;&amp;lt;extend&amp;gt;&amp;gt;" style="text;align=center;fontStyle=1;verticalAlign=middle;spacingLeft=3;spacingRight=3;strokeColor=none;rotatable=0;points=[[0,0.5],[1,0.5]];portConstraint=eastwest;html=1;" parent="1" vertex="1">
          <mxGeometry x="400" y="169" width="80" height="26" as="geometry" />
        </mxCell>
        <mxCell id="7pQK18nFPCm8TZFiN6Zl-14" value="Thêm tài khoản" style="ellipse;whiteSpace=wrap;html=1;" parent="1" vertex="1">
          <mxGeometry x="480" y="45" width="110" height="65" as="geometry" />
        </mxCell>
        <mxCell id="7pQK18nFPCm8TZFiN6Zl-15" value="Xóa tài khoản" style="ellipse;whiteSpace=wrap;html=1;" parent="1" vertex="1">
          <mxGeometry x="490" y="125" width="120" height="65" as="geometry" />
        </mxCell>
        <mxCell id="7pQK18nFPCm8TZFiN6Zl-16" value="Sửa tài khoản" style="ellipse;whiteSpace=wrap;html=1;" parent="1" vertex="1">
          <mxGeometry x="480" y="198" width="120" height="82" as="geometry" />
        </mxCell>
        <mxCell id="7pQK18nFPCm8TZFiN6Zl-19" value="Đăng nhập" style="ellipse;whiteSpace=wrap;html=1;" parent="1" vertex="1">
          <mxGeometry x="260" y="-10" width="120" height="70" as="geometry" />
        </mxCell>
        <mxCell id="7pQK18nFPCm8TZFiN6Zl-20" value="" style="endArrow=open;endFill=1;endSize=12;html=1;rounded=0;exitX=1;exitY=0.3333333333333333;exitDx=0;exitDy=0;exitPerimeter=0;entryX=0.011;entryY=0.748;entryDx=0;entryDy=0;entryPerimeter=0;" parent="1" source="7pQK18nFPCm8TZFiN6Zl-1" target="7pQK18nFPCm8TZFiN6Zl-19" edge="1">
          <mxGeometry width="160" relative="1" as="geometry">
            <mxPoint x="330" y="20" as="sourcePoint" />
            <mxPoint x="490" y="20" as="targetPoint" />
          </mxGeometry>
        </mxCell>
        <mxCell id="i3sCByTxwuQm-vUVaHIZ-1" value="USER" style="shape=umlActor;verticalLabelPosition=bottom;verticalAlign=top;html=1;outlineConnect=0;" parent="1" vertex="1">
          <mxGeometry x="100" y="510" width="30" height="60" as="geometry" />
        </mxCell>
        <mxCell id="i3sCByTxwuQm-vUVaHIZ-3" value="" style="endArrow=open;endFill=1;endSize=12;html=1;rounded=0;entryX=0.048;entryY=0.661;entryDx=0;entryDy=0;entryPerimeter=0;" parent="1" source="i3sCByTxwuQm-vUVaHIZ-1" target="i3sCByTxwuQm-vUVaHIZ-5" edge="1">
          <mxGeometry width="160" relative="1" as="geometry">
            <mxPoint x="330" y="560" as="sourcePoint" />
            <mxPoint x="260" y="470" as="targetPoint" />
          </mxGeometry>
        </mxCell>
        <mxCell id="i3sCByTxwuQm-vUVaHIZ-4" value="" style="endArrow=open;endFill=1;endSize=12;html=1;rounded=0;entryX=0;entryY=0.5;entryDx=0;entryDy=0;" parent="1" source="i3sCByTxwuQm-vUVaHIZ-1" target="i3sCByTxwuQm-vUVaHIZ-6" edge="1">
          <mxGeometry width="160" relative="1" as="geometry">
            <mxPoint x="140" y="543" as="sourcePoint" />
            <mxPoint x="280" y="540" as="targetPoint" />
          </mxGeometry>
        </mxCell>
        <mxCell id="i3sCByTxwuQm-vUVaHIZ-5" value="Đăng nhập" style="ellipse;whiteSpace=wrap;html=1;" parent="1" vertex="1">
          <mxGeometry x="260" y="430" width="110" height="60" as="geometry" />
        </mxCell>
        <mxCell id="i3sCByTxwuQm-vUVaHIZ-6" value="Chấm công" style="ellipse;whiteSpace=wrap;html=1;" parent="1" vertex="1">
          <mxGeometry x="280" y="510" width="110" height="65" as="geometry" />
        </mxCell>
        <mxCell id="i3sCByTxwuQm-vUVaHIZ-7" value="" style="endArrow=block;dashed=1;endFill=0;endSize=12;html=1;rounded=0;exitX=1;exitY=0.5;exitDx=0;exitDy=0;entryX=0.036;entryY=0.653;entryDx=0;entryDy=0;entryPerimeter=0;" parent="1" source="i3sCByTxwuQm-vUVaHIZ-6" target="i3sCByTxwuQm-vUVaHIZ-9" edge="1">
          <mxGeometry width="160" relative="1" as="geometry">
            <mxPoint x="400" y="550" as="sourcePoint" />
            <mxPoint x="470" y="543" as="targetPoint" />
          </mxGeometry>
        </mxCell>
        <mxCell id="i3sCByTxwuQm-vUVaHIZ-8" value="&amp;lt;&amp;lt;include&amp;gt;&amp;gt;" style="text;align=center;fontStyle=1;verticalAlign=middle;spacingLeft=3;spacingRight=3;strokeColor=none;rotatable=0;points=[[0,0.5],[1,0.5]];portConstraint=eastwest;html=1;" parent="1" vertex="1">
          <mxGeometry x="390" y="510" width="80" height="26" as="geometry" />
        </mxCell>
        <mxCell id="i3sCByTxwuQm-vUVaHIZ-9" value="Nhấp nút chấm công" style="ellipse;whiteSpace=wrap;html=1;" parent="1" vertex="1">
          <mxGeometry x="480" y="500" width="110" height="62.5" as="geometry" />
        </mxCell>
      </root>
    </mxGraphModel>
  </diagram>
  <diagram id="HEZNET-Wninm2bffuGlN" name="UseCase">
    <mxGraphModel dx="1923" dy="1456" grid="0" gridSize="10" guides="1" tooltips="1" connect="1" arrows="1" fold="1" page="0" pageScale="1" pageWidth="827" pageHeight="1169" math="0" shadow="0">
      <root>
        <mxCell id="0" />
        <mxCell id="1" parent="0" />
        <mxCell id="AhmNKnsMFL9aUSrfu4Ep-2" value="Người dùng" style="shape=umlActor;verticalLabelPosition=bottom;verticalAlign=top;html=1;" parent="1" vertex="1">
          <mxGeometry x="140" y="200" width="30" height="60" as="geometry" />
        </mxCell>
        <mxCell id="bH7ueCK6YC3XvinndrsE-1" value="" style="endArrow=open;endFill=1;endSize=12;html=1;rounded=0;entryX=0;entryY=0.5;entryDx=0;entryDy=0;" parent="1" source="AhmNKnsMFL9aUSrfu4Ep-2" target="x2CG9IM0Kzz4PQkObght-1" edge="1">
          <mxGeometry width="160" relative="1" as="geometry">
            <mxPoint x="180" y="220" as="sourcePoint" />
            <mxPoint x="250" y="230" as="targetPoint" />
          </mxGeometry>
        </mxCell>
        <mxCell id="x2CG9IM0Kzz4PQkObght-1" value="Đăng nhập" style="ellipse;whiteSpace=wrap;html=1;" parent="1" vertex="1">
          <mxGeometry x="250" y="195" width="90" height="75" as="geometry" />
        </mxCell>
        <mxCell id="x2CG9IM0Kzz4PQkObght-3" value="&amp;lt;&amp;lt;include&amp;gt;&amp;gt;" style="endArrow=open;endSize=12;dashed=1;html=1;rounded=0;exitX=1;exitY=0;exitDx=0;exitDy=0;" parent="1" source="x2CG9IM0Kzz4PQkObght-1" target="x2CG9IM0Kzz4PQkObght-4" edge="1">
          <mxGeometry width="160" relative="1" as="geometry">
            <mxPoint x="320" y="240" as="sourcePoint" />
            <mxPoint x="490" y="160" as="targetPoint" />
          </mxGeometry>
        </mxCell>
        <mxCell id="x2CG9IM0Kzz4PQkObght-4" value="Nhập username và password" style="ellipse;whiteSpace=wrap;html=1;" parent="1" vertex="1">
          <mxGeometry x="440" y="130" width="110" height="70" as="geometry" />
        </mxCell>
        <mxCell id="x2CG9IM0Kzz4PQkObght-5" value="&amp;lt;&amp;lt;include&amp;gt;&amp;gt;" style="endArrow=open;endSize=12;dashed=1;html=1;rounded=0;exitX=1;exitY=0.662;exitDx=0;exitDy=0;exitPerimeter=0;entryX=0;entryY=0.5;entryDx=0;entryDy=0;" parent="1" source="x2CG9IM0Kzz4PQkObght-1" target="x2CG9IM0Kzz4PQkObght-6" edge="1">
          <mxGeometry width="160" relative="1" as="geometry">
            <mxPoint x="320" y="240" as="sourcePoint" />
            <mxPoint x="450" y="260" as="targetPoint" />
          </mxGeometry>
        </mxCell>
        <mxCell id="x2CG9IM0Kzz4PQkObght-6" value="Xác thực tài khoản" style="ellipse;whiteSpace=wrap;html=1;" parent="1" vertex="1">
          <mxGeometry x="440" y="220" width="110" height="70" as="geometry" />
        </mxCell>
        <mxCell id="x2CG9IM0Kzz4PQkObght-7" value="UseCase Đăng nhập" style="text;align=center;fontStyle=1;verticalAlign=middle;spacingLeft=3;spacingRight=3;strokeColor=none;rotatable=0;points=[[0,0.5],[1,0.5]];portConstraint=eastwest;html=1;" parent="1" vertex="1">
          <mxGeometry x="320" y="297" width="80" height="26" as="geometry" />
        </mxCell>
        <mxCell id="x2CG9IM0Kzz4PQkObght-8" value="ADMIN" style="shape=umlActor;verticalLabelPosition=bottom;verticalAlign=top;html=1;" parent="1" vertex="1">
          <mxGeometry x="137" y="451" width="30" height="60" as="geometry" />
        </mxCell>
        <mxCell id="x2CG9IM0Kzz4PQkObght-9" value="" style="endArrow=open;endFill=1;endSize=12;html=1;rounded=0;exitX=1;exitY=0.3333333333333333;exitDx=0;exitDy=0;exitPerimeter=0;" parent="1" source="x2CG9IM0Kzz4PQkObght-8" target="x2CG9IM0Kzz4PQkObght-10" edge="1">
          <mxGeometry width="160" relative="1" as="geometry">
            <mxPoint x="405" y="450" as="sourcePoint" />
            <mxPoint x="258" y="432" as="targetPoint" />
          </mxGeometry>
        </mxCell>
        <mxCell id="x2CG9IM0Kzz4PQkObght-10" value="Đăng nhập" style="ellipse;whiteSpace=wrap;html=1;" parent="1" vertex="1">
          <mxGeometry x="250" y="379" width="140" height="70" as="geometry" />
        </mxCell>
        <mxCell id="x2CG9IM0Kzz4PQkObght-11" value="" style="endArrow=open;endFill=1;endSize=12;html=1;rounded=0;exitX=0.5;exitY=0.5;exitDx=0;exitDy=0;exitPerimeter=0;" parent="1" source="x2CG9IM0Kzz4PQkObght-8" target="x2CG9IM0Kzz4PQkObght-12" edge="1">
          <mxGeometry width="160" relative="1" as="geometry">
            <mxPoint x="405" y="450" as="sourcePoint" />
            <mxPoint x="276" y="481" as="targetPoint" />
          </mxGeometry>
        </mxCell>
        <mxCell id="x2CG9IM0Kzz4PQkObght-12" value="Quản lý tài khoản" style="ellipse;whiteSpace=wrap;html=1;" parent="1" vertex="1">
          <mxGeometry x="248" y="470" width="140" height="70" as="geometry" />
        </mxCell>
        <mxCell id="x2CG9IM0Kzz4PQkObght-13" value="&amp;lt;&amp;lt;extend&amp;gt;&amp;gt;" style="endArrow=open;endSize=12;dashed=1;html=1;rounded=0;entryX=1;entryY=0;entryDx=0;entryDy=0;exitX=0;exitY=0.5;exitDx=0;exitDy=0;" parent="1" source="x2CG9IM0Kzz4PQkObght-15" target="x2CG9IM0Kzz4PQkObght-12" edge="1">
          <mxGeometry width="160" relative="1" as="geometry">
            <mxPoint x="494" y="450" as="sourcePoint" />
            <mxPoint x="565" y="450" as="targetPoint" />
          </mxGeometry>
        </mxCell>
        <mxCell id="x2CG9IM0Kzz4PQkObght-14" value="&amp;lt;&amp;lt;extend&amp;gt;&amp;gt;" style="endArrow=open;endSize=12;dashed=1;html=1;rounded=0;entryX=1;entryY=0.5;entryDx=0;entryDy=0;exitX=0;exitY=0.5;exitDx=0;exitDy=0;" parent="1" source="x2CG9IM0Kzz4PQkObght-16" target="x2CG9IM0Kzz4PQkObght-12" edge="1">
          <mxGeometry width="160" relative="1" as="geometry">
            <mxPoint x="494" y="517" as="sourcePoint" />
            <mxPoint x="565" y="450" as="targetPoint" />
          </mxGeometry>
        </mxCell>
        <mxCell id="x2CG9IM0Kzz4PQkObght-15" value="Thêm tài khoản" style="ellipse;whiteSpace=wrap;html=1;" parent="1" vertex="1">
          <mxGeometry x="499" y="404" width="140" height="70" as="geometry" />
        </mxCell>
        <mxCell id="x2CG9IM0Kzz4PQkObght-16" value="Cập nhật tài khoản" style="ellipse;whiteSpace=wrap;html=1;" parent="1" vertex="1">
          <mxGeometry x="507" y="481" width="140" height="70" as="geometry" />
        </mxCell>
        <mxCell id="x2CG9IM0Kzz4PQkObght-17" value="Thêm nhân viên" style="ellipse;whiteSpace=wrap;html=1;" parent="1" vertex="1">
          <mxGeometry x="748" y="386" width="140" height="70" as="geometry" />
        </mxCell>
        <mxCell id="x2CG9IM0Kzz4PQkObght-18" value="&amp;lt;&amp;lt;include&amp;gt;&amp;gt;" style="endArrow=open;endSize=12;dashed=1;html=1;rounded=0;exitX=1;exitY=0.5;exitDx=0;exitDy=0;entryX=0;entryY=0.5;entryDx=0;entryDy=0;" parent="1" source="x2CG9IM0Kzz4PQkObght-15" target="x2CG9IM0Kzz4PQkObght-17" edge="1">
          <mxGeometry width="160" relative="1" as="geometry">
            <mxPoint x="405" y="450" as="sourcePoint" />
            <mxPoint x="565" y="450" as="targetPoint" />
          </mxGeometry>
        </mxCell>
        <mxCell id="x2CG9IM0Kzz4PQkObght-19" value="UseCase Quản lý tài khoản" style="text;align=center;fontStyle=1;verticalAlign=middle;spacingLeft=3;spacingRight=3;strokeColor=none;rotatable=0;points=[[0,0.5],[1,0.5]];portConstraint=eastwest;html=1;" parent="1" vertex="1">
          <mxGeometry x="320" y="585" width="80" height="26" as="geometry" />
        </mxCell>
        <mxCell id="x2CG9IM0Kzz4PQkObght-20" value="ADMIN" style="shape=umlActor;verticalLabelPosition=bottom;verticalAlign=top;html=1;" parent="1" vertex="1">
          <mxGeometry x="140" y="757" width="30" height="60" as="geometry" />
        </mxCell>
        <mxCell id="x2CG9IM0Kzz4PQkObght-21" value="" style="endArrow=open;endFill=1;endSize=12;html=1;rounded=0;exitX=1;exitY=0.3333333333333333;exitDx=0;exitDy=0;exitPerimeter=0;" parent="1" source="x2CG9IM0Kzz4PQkObght-20" target="x2CG9IM0Kzz4PQkObght-22" edge="1">
          <mxGeometry width="160" relative="1" as="geometry">
            <mxPoint x="122" y="661" as="sourcePoint" />
            <mxPoint x="257" y="737" as="targetPoint" />
          </mxGeometry>
        </mxCell>
        <mxCell id="x2CG9IM0Kzz4PQkObght-22" value="Đăng nhập" style="ellipse;whiteSpace=wrap;html=1;" parent="1" vertex="1">
          <mxGeometry x="243" y="700" width="140" height="70" as="geometry" />
        </mxCell>
        <mxCell id="x2CG9IM0Kzz4PQkObght-23" value="" style="endArrow=open;endFill=1;endSize=12;html=1;rounded=0;" parent="1" source="x2CG9IM0Kzz4PQkObght-20" target="x2CG9IM0Kzz4PQkObght-24" edge="1">
          <mxGeometry width="160" relative="1" as="geometry">
            <mxPoint x="122" y="661" as="sourcePoint" />
            <mxPoint x="291" y="861" as="targetPoint" />
          </mxGeometry>
        </mxCell>
        <mxCell id="x2CG9IM0Kzz4PQkObght-24" value="Quản lý nhân viên" style="ellipse;whiteSpace=wrap;html=1;" parent="1" vertex="1">
          <mxGeometry x="260" y="817" width="140" height="70" as="geometry" />
        </mxCell>
        <mxCell id="x2CG9IM0Kzz4PQkObght-25" value="&amp;lt;&amp;lt;extend&amp;gt;&amp;gt;" style="endArrow=open;endSize=12;dashed=1;html=1;rounded=0;exitX=0.077;exitY=0.812;exitDx=0;exitDy=0;exitPerimeter=0;" parent="1" source="x2CG9IM0Kzz4PQkObght-27" target="x2CG9IM0Kzz4PQkObght-24" edge="1">
          <mxGeometry x="0.0078" width="160" relative="1" as="geometry">
            <mxPoint x="504" y="744" as="sourcePoint" />
            <mxPoint x="282" y="661" as="targetPoint" />
            <mxPoint as="offset" />
          </mxGeometry>
        </mxCell>
        <mxCell id="x2CG9IM0Kzz4PQkObght-26" value="&amp;lt;&amp;lt;extend&amp;gt;&amp;gt;" style="endArrow=open;endSize=12;dashed=1;html=1;rounded=0;entryX=1;entryY=1;entryDx=0;entryDy=0;exitX=0;exitY=0.5;exitDx=0;exitDy=0;" parent="1" source="x2CG9IM0Kzz4PQkObght-28" target="x2CG9IM0Kzz4PQkObght-24" edge="1">
          <mxGeometry width="160" relative="1" as="geometry">
            <mxPoint x="537" y="919" as="sourcePoint" />
            <mxPoint x="282" y="661" as="targetPoint" />
          </mxGeometry>
        </mxCell>
        <mxCell id="x2CG9IM0Kzz4PQkObght-27" value="Thêm nhân viên" style="ellipse;whiteSpace=wrap;html=1;" parent="1" vertex="1">
          <mxGeometry x="510" y="700" width="140" height="70" as="geometry" />
        </mxCell>
        <mxCell id="x2CG9IM0Kzz4PQkObght-28" value="Sửa thông tin nhân viên&amp;nbsp;" style="ellipse;whiteSpace=wrap;html=1;" parent="1" vertex="1">
          <mxGeometry x="550" y="878" width="140" height="70" as="geometry" />
        </mxCell>
        <mxCell id="Ak2FNDYXj5MgXc6j5P-1-1" value="ADMIN" style="shape=umlActor;verticalLabelPosition=bottom;verticalAlign=top;html=1;outlineConnect=0;" parent="1" vertex="1">
          <mxGeometry x="950" y="536" width="30" height="60" as="geometry" />
        </mxCell>
        <mxCell id="Ak2FNDYXj5MgXc6j5P-1-4" value="" style="endArrow=open;endFill=1;endSize=12;html=1;rounded=0;" parent="1" source="Ak2FNDYXj5MgXc6j5P-1-1" target="Ak2FNDYXj5MgXc6j5P-1-5" edge="1">
          <mxGeometry width="160" relative="1" as="geometry">
            <mxPoint x="1079" y="653" as="sourcePoint" />
            <mxPoint x="1105" y="530" as="targetPoint" />
          </mxGeometry>
        </mxCell>
        <mxCell id="Ak2FNDYXj5MgXc6j5P-1-5" value="Đăng nhập" style="ellipse;whiteSpace=wrap;html=1;" parent="1" vertex="1">
          <mxGeometry x="1057" y="449" width="140" height="70" as="geometry" />
        </mxCell>
        <mxCell id="Ak2FNDYXj5MgXc6j5P-1-6" value="" style="endArrow=open;endFill=1;endSize=12;html=1;rounded=0;exitX=0.5;exitY=0.5;exitDx=0;exitDy=0;exitPerimeter=0;entryX=0;entryY=0.5;entryDx=0;entryDy=0;" parent="1" source="Ak2FNDYXj5MgXc6j5P-1-1" target="Ak2FNDYXj5MgXc6j5P-1-7" edge="1">
          <mxGeometry width="160" relative="1" as="geometry">
            <mxPoint x="1079" y="653" as="sourcePoint" />
            <mxPoint x="1073" y="611" as="targetPoint" />
          </mxGeometry>
        </mxCell>
        <mxCell id="Ak2FNDYXj5MgXc6j5P-1-7" value="Quản lý lịch làm việc" style="ellipse;whiteSpace=wrap;html=1;" parent="1" vertex="1">
          <mxGeometry x="1068" y="570" width="140" height="70" as="geometry" />
        </mxCell>
        <mxCell id="Ak2FNDYXj5MgXc6j5P-1-8" value="&amp;lt;&amp;lt;extend&amp;gt;&amp;gt;" style="endArrow=open;endSize=12;dashed=1;html=1;rounded=0;entryX=0.924;entryY=0.2;entryDx=0;entryDy=0;entryPerimeter=0;exitX=0;exitY=0.5;exitDx=0;exitDy=0;" parent="1" source="Ak2FNDYXj5MgXc6j5P-1-11" target="Ak2FNDYXj5MgXc6j5P-1-7" edge="1">
          <mxGeometry width="160" relative="1" as="geometry">
            <mxPoint x="1316" y="521" as="sourcePoint" />
            <mxPoint x="1224" y="604" as="targetPoint" />
          </mxGeometry>
        </mxCell>
        <mxCell id="Ak2FNDYXj5MgXc6j5P-1-9" value="&amp;lt;&amp;lt;extend&amp;gt;&amp;gt;" style="endArrow=open;endSize=12;dashed=1;html=1;rounded=0;entryX=1;entryY=0.5;entryDx=0;entryDy=0;exitX=0;exitY=0.5;exitDx=0;exitDy=0;" parent="1" source="Ak2FNDYXj5MgXc6j5P-1-12" target="Ak2FNDYXj5MgXc6j5P-1-7" edge="1">
          <mxGeometry width="160" relative="1" as="geometry">
            <mxPoint x="1360" y="616" as="sourcePoint" />
            <mxPoint x="1328" y="653" as="targetPoint" />
          </mxGeometry>
        </mxCell>
        <mxCell id="Ak2FNDYXj5MgXc6j5P-1-10" value="&amp;lt;&amp;lt;extend&amp;gt;&amp;gt;" style="endArrow=open;endSize=12;dashed=1;html=1;rounded=0;entryX=0.937;entryY=0.822;entryDx=0;entryDy=0;entryPerimeter=0;exitX=0;exitY=0.5;exitDx=0;exitDy=0;" parent="1" source="Ak2FNDYXj5MgXc6j5P-1-13" target="Ak2FNDYXj5MgXc6j5P-1-7" edge="1">
          <mxGeometry width="160" relative="1" as="geometry">
            <mxPoint x="1293" y="683" as="sourcePoint" />
            <mxPoint x="1328" y="653" as="targetPoint" />
          </mxGeometry>
        </mxCell>
        <mxCell id="Ak2FNDYXj5MgXc6j5P-1-11" value="Thêm lịch làm việc" style="ellipse;whiteSpace=wrap;html=1;" parent="1" vertex="1">
          <mxGeometry x="1334" y="474" width="140" height="70" as="geometry" />
        </mxCell>
        <mxCell id="Ak2FNDYXj5MgXc6j5P-1-12" value="Sửa lịch làm việc" style="ellipse;whiteSpace=wrap;html=1;" parent="1" vertex="1">
          <mxGeometry x="1376" y="570" width="140" height="70" as="geometry" />
        </mxCell>
        <mxCell id="Ak2FNDYXj5MgXc6j5P-1-13" value="Xóa lịch làm việc" style="ellipse;whiteSpace=wrap;html=1;" parent="1" vertex="1">
          <mxGeometry x="1367" y="672" width="140" height="70" as="geometry" />
        </mxCell>
        <mxCell id="Ak2FNDYXj5MgXc6j5P-1-14" value="&amp;lt;&amp;lt;include&amp;gt;&amp;gt;" style="endArrow=open;endSize=12;dashed=1;html=1;rounded=0;exitX=0.5;exitY=0;exitDx=0;exitDy=0;entryX=0;entryY=1;entryDx=0;entryDy=0;" parent="1" source="Ak2FNDYXj5MgXc6j5P-1-11" target="Ak2FNDYXj5MgXc6j5P-1-15" edge="1">
          <mxGeometry width="160" relative="1" as="geometry">
            <mxPoint x="1168" y="513" as="sourcePoint" />
            <mxPoint x="1514" y="396" as="targetPoint" />
          </mxGeometry>
        </mxCell>
        <mxCell id="Ak2FNDYXj5MgXc6j5P-1-15" value="Chọn nhân viên" style="ellipse;whiteSpace=wrap;html=1;" parent="1" vertex="1">
          <mxGeometry x="1518" y="354" width="140" height="70" as="geometry" />
        </mxCell>
        <mxCell id="Ak2FNDYXj5MgXc6j5P-1-16" value="&amp;lt;&amp;lt;include&amp;gt;&amp;gt;" style="endArrow=open;endSize=12;dashed=1;html=1;rounded=0;exitX=1;exitY=0;exitDx=0;exitDy=0;entryX=0;entryY=0.5;entryDx=0;entryDy=0;" parent="1" source="Ak2FNDYXj5MgXc6j5P-1-11" target="Ak2FNDYXj5MgXc6j5P-1-17" edge="1">
          <mxGeometry width="160" relative="1" as="geometry">
            <mxPoint x="1168" y="513" as="sourcePoint" />
            <mxPoint x="1580" y="488" as="targetPoint" />
          </mxGeometry>
        </mxCell>
        <mxCell id="Ak2FNDYXj5MgXc6j5P-1-17" value="Chọn ca làm việc" style="ellipse;whiteSpace=wrap;html=1;" parent="1" vertex="1">
          <mxGeometry x="1557" y="451" width="140" height="70" as="geometry" />
        </mxCell>
        <mxCell id="Ak2FNDYXj5MgXc6j5P-1-18" value="&amp;lt;&amp;lt;include&amp;gt;&amp;gt;" style="endArrow=open;endSize=12;dashed=1;html=1;rounded=0;exitX=0.952;exitY=0.302;exitDx=0;exitDy=0;exitPerimeter=0;" parent="1" source="Ak2FNDYXj5MgXc6j5P-1-12" target="Ak2FNDYXj5MgXc6j5P-1-20" edge="1">
          <mxGeometry width="160" relative="1" as="geometry">
            <mxPoint x="1339" y="513" as="sourcePoint" />
            <mxPoint x="1639" y="580" as="targetPoint" />
          </mxGeometry>
        </mxCell>
        <mxCell id="Ak2FNDYXj5MgXc6j5P-1-19" value="&amp;lt;&amp;lt;include&amp;gt;&amp;gt;" style="endArrow=open;endSize=12;dashed=1;html=1;rounded=0;exitX=1;exitY=1;exitDx=0;exitDy=0;" parent="1" source="Ak2FNDYXj5MgXc6j5P-1-12" target="Ak2FNDYXj5MgXc6j5P-1-21" edge="1">
          <mxGeometry width="160" relative="1" as="geometry">
            <mxPoint x="1339" y="513" as="sourcePoint" />
            <mxPoint x="1616" y="660" as="targetPoint" />
          </mxGeometry>
        </mxCell>
        <mxCell id="Ak2FNDYXj5MgXc6j5P-1-20" value="Thay đổi ca làm" style="ellipse;whiteSpace=wrap;html=1;" parent="1" vertex="1">
          <mxGeometry x="1586" y="555" width="140" height="70" as="geometry" />
        </mxCell>
        <mxCell id="Ak2FNDYXj5MgXc6j5P-1-21" value="Thay đổi nhân viên&amp;nbsp;" style="ellipse;whiteSpace=wrap;html=1;" parent="1" vertex="1">
          <mxGeometry x="1590" y="653" width="140" height="70" as="geometry" />
        </mxCell>
        <mxCell id="Ak2FNDYXj5MgXc6j5P-1-22" value="ADMIN" style="shape=umlActor;verticalLabelPosition=bottom;verticalAlign=top;html=1;" parent="1" vertex="1">
          <mxGeometry x="944" y="930" width="30" height="60" as="geometry" />
        </mxCell>
        <mxCell id="Ak2FNDYXj5MgXc6j5P-1-25" value="" style="endArrow=open;endFill=1;endSize=12;html=1;rounded=0;exitX=1;exitY=0.3333333333333333;exitDx=0;exitDy=0;exitPerimeter=0;" parent="1" source="Ak2FNDYXj5MgXc6j5P-1-22" target="Ak2FNDYXj5MgXc6j5P-1-26" edge="1">
          <mxGeometry width="160" relative="1" as="geometry">
            <mxPoint x="966" y="913" as="sourcePoint" />
            <mxPoint x="1070" y="913" as="targetPoint" />
          </mxGeometry>
        </mxCell>
        <mxCell id="Ak2FNDYXj5MgXc6j5P-1-26" value="Đăng nhập" style="ellipse;whiteSpace=wrap;html=1;" parent="1" vertex="1">
          <mxGeometry x="1063" y="858" width="140" height="70" as="geometry" />
        </mxCell>
        <mxCell id="Ak2FNDYXj5MgXc6j5P-1-27" value="" style="endArrow=open;endFill=1;endSize=12;html=1;rounded=0;exitX=0.5;exitY=0.5;exitDx=0;exitDy=0;exitPerimeter=0;" parent="1" source="Ak2FNDYXj5MgXc6j5P-1-22" target="Ak2FNDYXj5MgXc6j5P-1-28" edge="1">
          <mxGeometry width="160" relative="1" as="geometry">
            <mxPoint x="966" y="913" as="sourcePoint" />
            <mxPoint x="1079" y="969" as="targetPoint" />
          </mxGeometry>
        </mxCell>
        <mxCell id="Ak2FNDYXj5MgXc6j5P-1-28" value="Quản lý chấm công" style="ellipse;whiteSpace=wrap;html=1;" parent="1" vertex="1">
          <mxGeometry x="1063" y="978" width="140" height="70" as="geometry" />
        </mxCell>
        <mxCell id="Ak2FNDYXj5MgXc6j5P-1-29" value="&amp;lt;&amp;lt;extend&amp;gt;&amp;gt;" style="endArrow=open;endSize=12;dashed=1;html=1;rounded=0;entryX=1;entryY=0;entryDx=0;entryDy=0;exitX=0;exitY=0.5;exitDx=0;exitDy=0;" parent="1" source="Ak2FNDYXj5MgXc6j5P-1-30" target="Ak2FNDYXj5MgXc6j5P-1-28" edge="1">
          <mxGeometry width="160" relative="1" as="geometry">
            <mxPoint x="1337" y="923" as="sourcePoint" />
            <mxPoint x="1126" y="913" as="targetPoint" />
          </mxGeometry>
        </mxCell>
        <mxCell id="Ak2FNDYXj5MgXc6j5P-1-30" value="Xem báo cáo chấm công" style="ellipse;whiteSpace=wrap;html=1;" parent="1" vertex="1">
          <mxGeometry x="1348" y="890" width="140" height="70" as="geometry" />
        </mxCell>
        <mxCell id="Ak2FNDYXj5MgXc6j5P-1-31" value="&amp;lt;&amp;lt;extend&amp;gt;&amp;gt;" style="endArrow=open;endSize=12;dashed=1;html=1;rounded=0;entryX=1;entryY=0.5;entryDx=0;entryDy=0;exitX=0;exitY=0.5;exitDx=0;exitDy=0;" parent="1" source="Ak2FNDYXj5MgXc6j5P-1-32" target="Ak2FNDYXj5MgXc6j5P-1-28" edge="1">
          <mxGeometry width="160" relative="1" as="geometry">
            <mxPoint x="1365" y="1008" as="sourcePoint" />
            <mxPoint x="1126" y="913" as="targetPoint" />
          </mxGeometry>
        </mxCell>
        <mxCell id="Ak2FNDYXj5MgXc6j5P-1-32" value="Thêm/ chỉnh sửa chấm công" style="ellipse;whiteSpace=wrap;html=1;" parent="1" vertex="1">
          <mxGeometry x="1355" y="978" width="140" height="70" as="geometry" />
        </mxCell>
        <mxCell id="ckR1X3EV3BFfvcN3edzd-1" value="Quản lý" style="shape=umlActor;verticalLabelPosition=bottom;verticalAlign=top;html=1;" vertex="1" parent="1">
          <mxGeometry x="-506" y="-329" width="30" height="60" as="geometry" />
        </mxCell>
        <mxCell id="ckR1X3EV3BFfvcN3edzd-2" value="Nhân viên" style="shape=umlActor;verticalLabelPosition=bottom;verticalAlign=top;html=1;" vertex="1" parent="1">
          <mxGeometry x="-79" y="-329" width="30" height="60" as="geometry" />
        </mxCell>
        <mxCell id="ckR1X3EV3BFfvcN3edzd-4" value="Đăng nhập" style="ellipse;whiteSpace=wrap;html=1;" vertex="1" parent="1">
          <mxGeometry x="-315" y="-377" width="117" height="63" as="geometry" />
        </mxCell>
        <mxCell id="ckR1X3EV3BFfvcN3edzd-5" value="" style="endArrow=open;endFill=1;endSize=12;html=1;rounded=0;exitX=1;exitY=0.3333333333333333;exitDx=0;exitDy=0;exitPerimeter=0;entryX=0;entryY=0.5;entryDx=0;entryDy=0;" edge="1" parent="1" source="ckR1X3EV3BFfvcN3edzd-1" target="ckR1X3EV3BFfvcN3edzd-4">
          <mxGeometry width="160" relative="1" as="geometry">
            <mxPoint x="-314" y="-217" as="sourcePoint" />
            <mxPoint x="-154" y="-217" as="targetPoint" />
          </mxGeometry>
        </mxCell>
        <mxCell id="ckR1X3EV3BFfvcN3edzd-6" value="" style="endArrow=open;endFill=1;endSize=12;html=1;rounded=0;exitX=0;exitY=0.3333333333333333;exitDx=0;exitDy=0;exitPerimeter=0;entryX=1;entryY=0.5;entryDx=0;entryDy=0;" edge="1" parent="1" source="ckR1X3EV3BFfvcN3edzd-2" target="ckR1X3EV3BFfvcN3edzd-4">
          <mxGeometry width="160" relative="1" as="geometry">
            <mxPoint x="-314" y="-217" as="sourcePoint" />
            <mxPoint x="-154" y="-217" as="targetPoint" />
          </mxGeometry>
        </mxCell>
        <mxCell id="ckR1X3EV3BFfvcN3edzd-7" value="Đổi mật khẩu" style="ellipse;whiteSpace=wrap;html=1;" vertex="1" parent="1">
          <mxGeometry x="-318" y="-294" width="127" height="62" as="geometry" />
        </mxCell>
        <mxCell id="ckR1X3EV3BFfvcN3edzd-8" value="" style="endArrow=open;endFill=1;endSize=12;html=1;rounded=0;exitX=1;exitY=0.3333333333333333;exitDx=0;exitDy=0;exitPerimeter=0;entryX=0;entryY=0.5;entryDx=0;entryDy=0;" edge="1" parent="1" source="ckR1X3EV3BFfvcN3edzd-1" target="ckR1X3EV3BFfvcN3edzd-7">
          <mxGeometry width="160" relative="1" as="geometry">
            <mxPoint x="-314" y="-217" as="sourcePoint" />
            <mxPoint x="-154" y="-217" as="targetPoint" />
          </mxGeometry>
        </mxCell>
        <mxCell id="ckR1X3EV3BFfvcN3edzd-9" value="" style="endArrow=open;endFill=1;endSize=12;html=1;rounded=0;entryX=1.023;entryY=0.415;entryDx=0;entryDy=0;entryPerimeter=0;" edge="1" parent="1" target="ckR1X3EV3BFfvcN3edzd-7">
          <mxGeometry width="160" relative="1" as="geometry">
            <mxPoint x="-79" y="-306" as="sourcePoint" />
            <mxPoint x="-154" y="-217" as="targetPoint" />
          </mxGeometry>
        </mxCell>
        <mxCell id="ckR1X3EV3BFfvcN3edzd-10" value="Quản lý thông tin cá nhân" style="ellipse;whiteSpace=wrap;html=1;" vertex="1" parent="1">
          <mxGeometry x="-324.5" y="-203" width="134.5" height="63" as="geometry" />
        </mxCell>
        <mxCell id="ckR1X3EV3BFfvcN3edzd-13" value="" style="endArrow=open;endFill=1;endSize=12;html=1;rounded=0;exitX=1;exitY=0.3333333333333333;exitDx=0;exitDy=0;exitPerimeter=0;entryX=0.027;entryY=0.405;entryDx=0;entryDy=0;entryPerimeter=0;" edge="1" parent="1" source="ckR1X3EV3BFfvcN3edzd-1" target="ckR1X3EV3BFfvcN3edzd-10">
          <mxGeometry width="160" relative="1" as="geometry">
            <mxPoint x="-314" y="-217" as="sourcePoint" />
            <mxPoint x="-154" y="-217" as="targetPoint" />
          </mxGeometry>
        </mxCell>
        <mxCell id="ckR1X3EV3BFfvcN3edzd-14" value="" style="endArrow=open;endFill=1;endSize=12;html=1;rounded=0;exitX=0;exitY=0.3333333333333333;exitDx=0;exitDy=0;exitPerimeter=0;entryX=1;entryY=0.5;entryDx=0;entryDy=0;" edge="1" parent="1" source="ckR1X3EV3BFfvcN3edzd-2" target="ckR1X3EV3BFfvcN3edzd-10">
          <mxGeometry width="160" relative="1" as="geometry">
            <mxPoint x="-314" y="-217" as="sourcePoint" />
            <mxPoint x="-154" y="-217" as="targetPoint" />
          </mxGeometry>
        </mxCell>
        <mxCell id="ckR1X3EV3BFfvcN3edzd-15" value="" style="endArrow=open;endFill=1;endSize=12;html=1;rounded=0;exitX=1;exitY=0.3333333333333333;exitDx=0;exitDy=0;exitPerimeter=0;" edge="1" parent="1" source="ckR1X3EV3BFfvcN3edzd-1" target="ckR1X3EV3BFfvcN3edzd-16">
          <mxGeometry width="160" relative="1" as="geometry">
            <mxPoint x="-300" y="-217" as="sourcePoint" />
            <mxPoint x="-397" y="-110" as="targetPoint" />
          </mxGeometry>
        </mxCell>
        <mxCell id="ckR1X3EV3BFfvcN3edzd-16" value="Quản lý lịch làm việc" style="ellipse;whiteSpace=wrap;html=1;" vertex="1" parent="1">
          <mxGeometry x="-444" y="-142" width="131" height="64" as="geometry" />
        </mxCell>
        <mxCell id="ckR1X3EV3BFfvcN3edzd-17" value="Quản lý chấm công" style="ellipse;whiteSpace=wrap;html=1;" vertex="1" parent="1">
          <mxGeometry x="-458" y="-33" width="127" height="70" as="geometry" />
        </mxCell>
        <mxCell id="ckR1X3EV3BFfvcN3edzd-18" value="" style="endArrow=open;endFill=1;endSize=12;html=1;rounded=0;exitX=1;exitY=0.3333333333333333;exitDx=0;exitDy=0;exitPerimeter=0;entryX=0;entryY=0;entryDx=0;entryDy=0;" edge="1" parent="1" source="ckR1X3EV3BFfvcN3edzd-1" target="ckR1X3EV3BFfvcN3edzd-17">
          <mxGeometry width="160" relative="1" as="geometry">
            <mxPoint x="-300" y="-117" as="sourcePoint" />
            <mxPoint x="-140" y="-117" as="targetPoint" />
          </mxGeometry>
        </mxCell>
        <mxCell id="ckR1X3EV3BFfvcN3edzd-19" value="Quản lý hợp đồng lao đồng" style="ellipse;whiteSpace=wrap;html=1;" vertex="1" parent="1">
          <mxGeometry x="-331" y="-485" width="140" height="70" as="geometry" />
        </mxCell>
        <mxCell id="ckR1X3EV3BFfvcN3edzd-20" value="Quản lý thưởng phạt" style="ellipse;whiteSpace=wrap;html=1;" vertex="1" parent="1">
          <mxGeometry x="-324.5" y="-593" width="140" height="70" as="geometry" />
        </mxCell>
        <mxCell id="ckR1X3EV3BFfvcN3edzd-21" value="" style="endArrow=open;endFill=1;endSize=12;html=1;rounded=0;exitX=1;exitY=0.3333333333333333;exitDx=0;exitDy=0;exitPerimeter=0;entryX=0;entryY=0.5;entryDx=0;entryDy=0;" edge="1" parent="1" source="ckR1X3EV3BFfvcN3edzd-1" target="ckR1X3EV3BFfvcN3edzd-19">
          <mxGeometry width="160" relative="1" as="geometry">
            <mxPoint x="-300" y="-517" as="sourcePoint" />
            <mxPoint x="-140" y="-517" as="targetPoint" />
          </mxGeometry>
        </mxCell>
        <mxCell id="ckR1X3EV3BFfvcN3edzd-22" value="" style="endArrow=open;endFill=1;endSize=12;html=1;rounded=0;exitX=1;exitY=0.3333333333333333;exitDx=0;exitDy=0;exitPerimeter=0;entryX=0;entryY=0.5;entryDx=0;entryDy=0;" edge="1" parent="1" source="ckR1X3EV3BFfvcN3edzd-1" target="ckR1X3EV3BFfvcN3edzd-20">
          <mxGeometry width="160" relative="1" as="geometry">
            <mxPoint x="-300" y="-517" as="sourcePoint" />
            <mxPoint x="-140" y="-517" as="targetPoint" />
          </mxGeometry>
        </mxCell>
        <mxCell id="ckR1X3EV3BFfvcN3edzd-23" value="" style="endArrow=open;endFill=1;endSize=12;html=1;rounded=0;exitX=0.756;exitY=0.228;exitDx=0;exitDy=0;exitPerimeter=0;entryX=0;entryY=0.5;entryDx=0;entryDy=0;" edge="1" parent="1" source="ckR1X3EV3BFfvcN3edzd-1" target="ckR1X3EV3BFfvcN3edzd-24">
          <mxGeometry width="160" relative="1" as="geometry">
            <mxPoint x="-300" y="-417" as="sourcePoint" />
            <mxPoint x="-140" y="-417" as="targetPoint" />
          </mxGeometry>
        </mxCell>
        <mxCell id="ckR1X3EV3BFfvcN3edzd-24" value="Quản lý tính lương" style="ellipse;whiteSpace=wrap;html=1;" vertex="1" parent="1">
          <mxGeometry x="-158" y="-460" width="140" height="70" as="geometry" />
        </mxCell>
        <mxCell id="ckR1X3EV3BFfvcN3edzd-25" value="Chấm công" style="ellipse;whiteSpace=wrap;html=1;" vertex="1" parent="1">
          <mxGeometry x="-112" y="-153" width="130" height="63" as="geometry" />
        </mxCell>
        <mxCell id="ckR1X3EV3BFfvcN3edzd-26" value="" style="endArrow=open;endFill=1;endSize=12;html=1;rounded=0;exitX=0;exitY=0.3333333333333333;exitDx=0;exitDy=0;exitPerimeter=0;entryX=0.5;entryY=0;entryDx=0;entryDy=0;" edge="1" parent="1" source="ckR1X3EV3BFfvcN3edzd-2" target="ckR1X3EV3BFfvcN3edzd-25">
          <mxGeometry width="160" relative="1" as="geometry">
            <mxPoint x="-300" y="-117" as="sourcePoint" />
            <mxPoint x="-140" y="-117" as="targetPoint" />
          </mxGeometry>
        </mxCell>
        <mxCell id="ckR1X3EV3BFfvcN3edzd-27" value="Xem lịch làm việc" style="ellipse;whiteSpace=wrap;html=1;" vertex="1" parent="1">
          <mxGeometry x="18" y="-232" width="140" height="70" as="geometry" />
        </mxCell>
        <mxCell id="ckR1X3EV3BFfvcN3edzd-28" value="" style="endArrow=open;endFill=1;endSize=12;html=1;rounded=0;exitX=1;exitY=0.3333333333333333;exitDx=0;exitDy=0;exitPerimeter=0;entryX=0.5;entryY=0;entryDx=0;entryDy=0;" edge="1" parent="1" source="ckR1X3EV3BFfvcN3edzd-2" target="ckR1X3EV3BFfvcN3edzd-27">
          <mxGeometry width="160" relative="1" as="geometry">
            <mxPoint x="-423" y="-272" as="sourcePoint" />
            <mxPoint x="-263" y="-272" as="targetPoint" />
          </mxGeometry>
        </mxCell>
        <mxCell id="ckR1X3EV3BFfvcN3edzd-29" value="Xem thưởng phạt" style="ellipse;whiteSpace=wrap;html=1;" vertex="1" parent="1">
          <mxGeometry x="23" y="-377" width="140" height="70" as="geometry" />
        </mxCell>
        <mxCell id="ckR1X3EV3BFfvcN3edzd-30" value="" style="endArrow=open;endFill=1;endSize=12;html=1;rounded=0;exitX=1;exitY=0.3333333333333333;exitDx=0;exitDy=0;exitPerimeter=0;entryX=0;entryY=0.5;entryDx=0;entryDy=0;" edge="1" parent="1" source="ckR1X3EV3BFfvcN3edzd-2" target="ckR1X3EV3BFfvcN3edzd-29">
          <mxGeometry width="160" relative="1" as="geometry">
            <mxPoint x="-423" y="-272" as="sourcePoint" />
            <mxPoint x="-263" y="-272" as="targetPoint" />
          </mxGeometry>
        </mxCell>
        <mxCell id="ckR1X3EV3BFfvcN3edzd-31" value="Xem hợp đồng lao động" style="ellipse;whiteSpace=wrap;html=1;" vertex="1" parent="1">
          <mxGeometry x="-224" y="-84" width="140" height="70" as="geometry" />
        </mxCell>
        <mxCell id="ckR1X3EV3BFfvcN3edzd-32" value="" style="endArrow=open;endFill=1;endSize=12;html=1;rounded=0;exitX=0;exitY=0.3333333333333333;exitDx=0;exitDy=0;exitPerimeter=0;entryX=0.5;entryY=0;entryDx=0;entryDy=0;" edge="1" parent="1" source="ckR1X3EV3BFfvcN3edzd-2" target="ckR1X3EV3BFfvcN3edzd-31">
          <mxGeometry width="160" relative="1" as="geometry">
            <mxPoint x="-423" y="-272" as="sourcePoint" />
            <mxPoint x="-263" y="-272" as="targetPoint" />
          </mxGeometry>
        </mxCell>
        <mxCell id="ckR1X3EV3BFfvcN3edzd-33" value="" style="endArrow=open;endFill=1;endSize=12;html=1;rounded=0;exitX=1;exitY=0.3333333333333333;exitDx=0;exitDy=0;exitPerimeter=0;" edge="1" parent="1" source="ckR1X3EV3BFfvcN3edzd-2" target="ckR1X3EV3BFfvcN3edzd-34">
          <mxGeometry width="160" relative="1" as="geometry">
            <mxPoint x="-423" y="-272" as="sourcePoint" />
            <mxPoint x="52" y="-96" as="targetPoint" />
          </mxGeometry>
        </mxCell>
        <mxCell id="ckR1X3EV3BFfvcN3edzd-34" value="Xem phiếu lương" style="ellipse;whiteSpace=wrap;html=1;" vertex="1" parent="1">
          <mxGeometry x="9.000000000000227" y="-98" width="140" height="70" as="geometry" />
        </mxCell>
      </root>
    </mxGraphModel>
  </diagram>
  <diagram id="2LKVWkAO6B13d6s3G_0Y" name="Trang-3">
    <mxGraphModel dx="1123" dy="656" grid="0" gridSize="10" guides="1" tooltips="1" connect="1" arrows="1" fold="1" page="1" pageScale="1" pageWidth="827" pageHeight="1169" math="0" shadow="0">
      <root>
        <mxCell id="0" />
        <mxCell id="1" parent="0" />
        <mxCell id="ywtn9SBlBVrEBoDn3AKO-1" value="Employee" style="whiteSpace=wrap;html=1;align=center;" parent="1" vertex="1">
          <mxGeometry x="421" y="210.5" width="100" height="40" as="geometry" />
        </mxCell>
        <mxCell id="ywtn9SBlBVrEBoDn3AKO-2" value="Manager" style="whiteSpace=wrap;html=1;align=center;" parent="1" vertex="1">
          <mxGeometry x="99" y="210.5" width="100" height="40" as="geometry" />
        </mxCell>
        <mxCell id="ywtn9SBlBVrEBoDn3AKO-4" value="ISA" style="shape=rhombus;perimeter=rhombusPerimeter;whiteSpace=wrap;html=1;align=center;" parent="1" vertex="1">
          <mxGeometry x="263" y="205" width="87" height="51" as="geometry" />
        </mxCell>
        <mxCell id="ywtn9SBlBVrEBoDn3AKO-7" value="" style="edgeStyle=entityRelationEdgeStyle;fontSize=12;html=1;endArrow=ERmandOne;rounded=0;exitX=1;exitY=0.5;exitDx=0;exitDy=0;entryX=0;entryY=0.5;entryDx=0;entryDy=0;" parent="1" source="ywtn9SBlBVrEBoDn3AKO-4" target="ywtn9SBlBVrEBoDn3AKO-1" edge="1">
          <mxGeometry width="100" height="100" relative="1" as="geometry">
            <mxPoint x="354" y="291" as="sourcePoint" />
            <mxPoint x="454" y="191" as="targetPoint" />
          </mxGeometry>
        </mxCell>
        <mxCell id="ywtn9SBlBVrEBoDn3AKO-8" value="" style="edgeStyle=entityRelationEdgeStyle;fontSize=12;html=1;endArrow=ERmandOne;rounded=0;exitX=0;exitY=0.5;exitDx=0;exitDy=0;entryX=1;entryY=0.5;entryDx=0;entryDy=0;" parent="1" source="ywtn9SBlBVrEBoDn3AKO-4" target="ywtn9SBlBVrEBoDn3AKO-2" edge="1">
          <mxGeometry width="100" height="100" relative="1" as="geometry">
            <mxPoint x="354" y="291" as="sourcePoint" />
            <mxPoint x="454" y="191" as="targetPoint" />
          </mxGeometry>
        </mxCell>
        <mxCell id="ywtn9SBlBVrEBoDn3AKO-9" value="Account" style="whiteSpace=wrap;html=1;align=center;" parent="1" vertex="1">
          <mxGeometry x="506" y="310.5" width="100" height="40" as="geometry" />
        </mxCell>
        <mxCell id="ywtn9SBlBVrEBoDn3AKO-10" value="Role" style="whiteSpace=wrap;html=1;align=center;" parent="1" vertex="1">
          <mxGeometry x="506" y="476" width="100" height="40" as="geometry" />
        </mxCell>
        <mxCell id="ywtn9SBlBVrEBoDn3AKO-11" value="" style="edgeStyle=orthogonalEdgeStyle;fontSize=12;html=1;endArrow=ERmandOne;rounded=0;entryX=1;entryY=0.75;entryDx=0;entryDy=0;exitX=0.5;exitY=0;exitDx=0;exitDy=0;" parent="1" source="ywtn9SBlBVrEBoDn3AKO-12" target="ywtn9SBlBVrEBoDn3AKO-1" edge="1">
          <mxGeometry width="100" height="100" relative="1" as="geometry">
            <mxPoint x="663" y="175" as="sourcePoint" />
            <mxPoint x="631" y="227" as="targetPoint" />
          </mxGeometry>
        </mxCell>
        <mxCell id="ywtn9SBlBVrEBoDn3AKO-12" value="CO" style="shape=rhombus;perimeter=rhombusPerimeter;whiteSpace=wrap;html=1;align=center;" parent="1" vertex="1">
          <mxGeometry x="591" y="250.5" width="120" height="60" as="geometry" />
        </mxCell>
        <mxCell id="ywtn9SBlBVrEBoDn3AKO-13" value="" style="edgeStyle=orthogonalEdgeStyle;fontSize=12;html=1;endArrow=ERmandOne;rounded=0;exitX=0.5;exitY=1;exitDx=0;exitDy=0;entryX=1;entryY=0.5;entryDx=0;entryDy=0;" parent="1" source="ywtn9SBlBVrEBoDn3AKO-12" target="ywtn9SBlBVrEBoDn3AKO-9" edge="1">
          <mxGeometry width="100" height="100" relative="1" as="geometry">
            <mxPoint x="354" y="291" as="sourcePoint" />
            <mxPoint x="454" y="191" as="targetPoint" />
          </mxGeometry>
        </mxCell>
        <mxCell id="ywtn9SBlBVrEBoDn3AKO-14" value="THUOC" style="shape=rhombus;perimeter=rhombusPerimeter;whiteSpace=wrap;html=1;align=center;" parent="1" vertex="1">
          <mxGeometry x="496" y="384.5" width="120" height="60" as="geometry" />
        </mxCell>
        <mxCell id="ywtn9SBlBVrEBoDn3AKO-15" value="" style="fontSize=12;html=1;endArrow=ERmandOne;rounded=0;exitX=0.5;exitY=1;exitDx=0;exitDy=0;entryX=0.5;entryY=0;entryDx=0;entryDy=0;" parent="1" source="ywtn9SBlBVrEBoDn3AKO-14" target="ywtn9SBlBVrEBoDn3AKO-10" edge="1">
          <mxGeometry width="100" height="100" relative="1" as="geometry">
            <mxPoint x="354" y="491" as="sourcePoint" />
            <mxPoint x="454" y="391" as="targetPoint" />
          </mxGeometry>
        </mxCell>
        <mxCell id="ywtn9SBlBVrEBoDn3AKO-16" value="" style="fontSize=12;html=1;endArrow=ERoneToMany;rounded=0;exitX=0.5;exitY=0;exitDx=0;exitDy=0;entryX=0.5;entryY=1;entryDx=0;entryDy=0;" parent="1" source="ywtn9SBlBVrEBoDn3AKO-14" target="ywtn9SBlBVrEBoDn3AKO-9" edge="1">
          <mxGeometry width="100" height="100" relative="1" as="geometry">
            <mxPoint x="354" y="491" as="sourcePoint" />
            <mxPoint x="424" y="375" as="targetPoint" />
          </mxGeometry>
        </mxCell>
        <mxCell id="ywtn9SBlBVrEBoDn3AKO-17" value="Attendance" style="whiteSpace=wrap;html=1;align=center;" parent="1" vertex="1">
          <mxGeometry x="421" y="27" width="100" height="40" as="geometry" />
        </mxCell>
        <mxCell id="ywtn9SBlBVrEBoDn3AKO-18" value="" style="fontSize=12;html=1;endArrow=ERmandOne;rounded=0;entryX=0.5;entryY=0;entryDx=0;entryDy=0;exitX=0.5;exitY=1;exitDx=0;exitDy=0;" parent="1" source="ywtn9SBlBVrEBoDn3AKO-19" target="ywtn9SBlBVrEBoDn3AKO-1" edge="1">
          <mxGeometry width="100" height="100" relative="1" as="geometry">
            <mxPoint x="448" y="165" as="sourcePoint" />
            <mxPoint x="454" y="191" as="targetPoint" />
          </mxGeometry>
        </mxCell>
        <mxCell id="ywtn9SBlBVrEBoDn3AKO-19" value="CO" style="shape=rhombus;perimeter=rhombusPerimeter;whiteSpace=wrap;html=1;align=center;" parent="1" vertex="1">
          <mxGeometry x="411" y="124" width="120" height="60" as="geometry" />
        </mxCell>
        <mxCell id="ywtn9SBlBVrEBoDn3AKO-20" value="" style="fontSize=12;html=1;endArrow=ERoneToMany;rounded=0;exitX=0.5;exitY=0;exitDx=0;exitDy=0;entryX=0.5;entryY=1;entryDx=0;entryDy=0;" parent="1" source="ywtn9SBlBVrEBoDn3AKO-19" target="ywtn9SBlBVrEBoDn3AKO-17" edge="1">
          <mxGeometry width="100" height="100" relative="1" as="geometry">
            <mxPoint x="354" y="291" as="sourcePoint" />
            <mxPoint x="454" y="191" as="targetPoint" />
          </mxGeometry>
        </mxCell>
        <mxCell id="ywtn9SBlBVrEBoDn3AKO-21" value="Workschedule" style="whiteSpace=wrap;html=1;align=center;" parent="1" vertex="1">
          <mxGeometry x="95" y="449" width="100" height="37" as="geometry" />
        </mxCell>
        <mxCell id="ywtn9SBlBVrEBoDn3AKO-22" value="" style="fontSize=12;html=1;endArrow=ERmandOne;rounded=0;exitX=0.5;exitY=1;exitDx=0;exitDy=0;entryX=0.5;entryY=1;entryDx=0;entryDy=0;" parent="1" source="ywtn9SBlBVrEBoDn3AKO-23" target="ywtn9SBlBVrEBoDn3AKO-2" edge="1">
          <mxGeometry width="100" height="100" relative="1" as="geometry">
            <mxPoint x="354" y="291" as="sourcePoint" />
            <mxPoint x="99" y="128" as="targetPoint" />
          </mxGeometry>
        </mxCell>
        <mxCell id="ywtn9SBlBVrEBoDn3AKO-23" value="TAO" style="shape=rhombus;perimeter=rhombusPerimeter;whiteSpace=wrap;html=1;align=center;" parent="1" vertex="1">
          <mxGeometry x="85" y="324.5" width="120" height="60" as="geometry" />
        </mxCell>
        <mxCell id="ywtn9SBlBVrEBoDn3AKO-24" value="" style="fontSize=12;html=1;endArrow=ERoneToMany;rounded=0;exitX=0.5;exitY=1;exitDx=0;exitDy=0;entryX=0.5;entryY=0;entryDx=0;entryDy=0;" parent="1" source="ywtn9SBlBVrEBoDn3AKO-23" target="ywtn9SBlBVrEBoDn3AKO-21" edge="1">
          <mxGeometry width="100" height="100" relative="1" as="geometry">
            <mxPoint x="354" y="291" as="sourcePoint" />
            <mxPoint x="454" y="191" as="targetPoint" />
          </mxGeometry>
        </mxCell>
        <mxCell id="ywtn9SBlBVrEBoDn3AKO-25" value="Workschedule_details" style="shape=associativeEntity;whiteSpace=wrap;html=1;align=center;" parent="1" vertex="1">
          <mxGeometry x="268" y="350.5" width="140" height="70" as="geometry" />
        </mxCell>
        <mxCell id="ywtn9SBlBVrEBoDn3AKO-27" value="" style="edgeStyle=orthogonalEdgeStyle;fontSize=12;html=1;endArrow=ERoneToMany;startArrow=ERmandOne;rounded=0;exitX=1;exitY=0.5;exitDx=0;exitDy=0;entryX=0.5;entryY=1;entryDx=0;entryDy=0;" parent="1" source="ywtn9SBlBVrEBoDn3AKO-21" target="ywtn9SBlBVrEBoDn3AKO-25" edge="1">
          <mxGeometry width="100" height="100" relative="1" as="geometry">
            <mxPoint x="354" y="391" as="sourcePoint" />
            <mxPoint x="454" y="291" as="targetPoint" />
          </mxGeometry>
        </mxCell>
        <mxCell id="ywtn9SBlBVrEBoDn3AKO-28" value="" style="edgeStyle=orthogonalEdgeStyle;fontSize=12;html=1;endArrow=ERoneToMany;startArrow=ERmandOne;rounded=0;entryX=0.5;entryY=0;entryDx=0;entryDy=0;exitX=0.5;exitY=1;exitDx=0;exitDy=0;" parent="1" source="ywtn9SBlBVrEBoDn3AKO-1" target="ywtn9SBlBVrEBoDn3AKO-25" edge="1">
          <mxGeometry width="100" height="100" relative="1" as="geometry">
            <mxPoint x="354" y="391" as="sourcePoint" />
            <mxPoint x="454" y="291" as="targetPoint" />
          </mxGeometry>
        </mxCell>
        <mxCell id="ywtn9SBlBVrEBoDn3AKO-29" value="RewardPunish" style="whiteSpace=wrap;html=1;align=center;" parent="1" vertex="1">
          <mxGeometry x="99" y="75" width="100" height="40" as="geometry" />
        </mxCell>
        <mxCell id="ywtn9SBlBVrEBoDn3AKO-30" value="TAO" style="shape=rhombus;perimeter=rhombusPerimeter;whiteSpace=wrap;html=1;align=center;" parent="1" vertex="1">
          <mxGeometry x="89" y="133" width="120" height="60" as="geometry" />
        </mxCell>
        <mxCell id="ywtn9SBlBVrEBoDn3AKO-31" value="" style="fontSize=12;html=1;endArrow=ERmandOne;rounded=0;exitX=0.5;exitY=1;exitDx=0;exitDy=0;entryX=0.5;entryY=0;entryDx=0;entryDy=0;" parent="1" source="ywtn9SBlBVrEBoDn3AKO-30" target="ywtn9SBlBVrEBoDn3AKO-2" edge="1">
          <mxGeometry width="100" height="100" relative="1" as="geometry">
            <mxPoint x="370" y="322" as="sourcePoint" />
            <mxPoint x="470" y="222" as="targetPoint" />
          </mxGeometry>
        </mxCell>
        <mxCell id="ywtn9SBlBVrEBoDn3AKO-32" value="" style="fontSize=12;html=1;endArrow=ERoneToMany;rounded=0;exitX=0.5;exitY=0;exitDx=0;exitDy=0;entryX=0.5;entryY=1;entryDx=0;entryDy=0;" parent="1" source="ywtn9SBlBVrEBoDn3AKO-30" target="ywtn9SBlBVrEBoDn3AKO-29" edge="1">
          <mxGeometry width="100" height="100" relative="1" as="geometry">
            <mxPoint x="370" y="322" as="sourcePoint" />
            <mxPoint x="470" y="222" as="targetPoint" />
          </mxGeometry>
        </mxCell>
        <mxCell id="ywtn9SBlBVrEBoDn3AKO-33" value="RewardPunish_Details" style="shape=associativeEntity;whiteSpace=wrap;html=1;align=center;" parent="1" vertex="1">
          <mxGeometry x="236.5" y="65" width="140" height="60" as="geometry" />
        </mxCell>
        <mxCell id="ywtn9SBlBVrEBoDn3AKO-34" value="" style="edgeStyle=orthogonalEdgeStyle;fontSize=12;html=1;endArrow=ERoneToMany;startArrow=ERmandOne;rounded=0;exitX=0.25;exitY=0;exitDx=0;exitDy=0;entryX=0.5;entryY=1;entryDx=0;entryDy=0;" parent="1" source="ywtn9SBlBVrEBoDn3AKO-1" target="ywtn9SBlBVrEBoDn3AKO-33" edge="1">
          <mxGeometry width="100" height="100" relative="1" as="geometry">
            <mxPoint x="370" y="322" as="sourcePoint" />
            <mxPoint x="470" y="222" as="targetPoint" />
            <Array as="points">
              <mxPoint x="446" y="186" />
              <mxPoint x="307" y="186" />
            </Array>
          </mxGeometry>
        </mxCell>
        <mxCell id="ywtn9SBlBVrEBoDn3AKO-35" value="" style="fontSize=12;html=1;endArrow=ERoneToMany;startArrow=ERmandOne;rounded=0;exitX=1;exitY=0.5;exitDx=0;exitDy=0;entryX=0;entryY=0.5;entryDx=0;entryDy=0;" parent="1" source="ywtn9SBlBVrEBoDn3AKO-29" target="ywtn9SBlBVrEBoDn3AKO-33" edge="1">
          <mxGeometry width="100" height="100" relative="1" as="geometry">
            <mxPoint x="370" y="322" as="sourcePoint" />
            <mxPoint x="470" y="222" as="targetPoint" />
          </mxGeometry>
        </mxCell>
        <mxCell id="ywtn9SBlBVrEBoDn3AKO-36" value="Salary" style="whiteSpace=wrap;html=1;align=center;" parent="1" vertex="1">
          <mxGeometry x="694" y="144" width="100" height="40" as="geometry" />
        </mxCell>
        <mxCell id="ywtn9SBlBVrEBoDn3AKO-37" value="CO" style="shape=rhombus;perimeter=rhombusPerimeter;whiteSpace=wrap;html=1;align=center;" parent="1" vertex="1">
          <mxGeometry x="562" y="170" width="120" height="60" as="geometry" />
        </mxCell>
        <mxCell id="ywtn9SBlBVrEBoDn3AKO-38" value="" style="edgeStyle=orthogonalEdgeStyle;fontSize=12;html=1;endArrow=ERmandOne;rounded=0;exitX=0;exitY=0.5;exitDx=0;exitDy=0;entryX=0.75;entryY=0;entryDx=0;entryDy=0;" parent="1" source="ywtn9SBlBVrEBoDn3AKO-37" target="ywtn9SBlBVrEBoDn3AKO-1" edge="1">
          <mxGeometry width="100" height="100" relative="1" as="geometry">
            <mxPoint x="370" y="322" as="sourcePoint" />
            <mxPoint x="470" y="222" as="targetPoint" />
          </mxGeometry>
        </mxCell>
        <mxCell id="ywtn9SBlBVrEBoDn3AKO-39" value="" style="edgeStyle=orthogonalEdgeStyle;fontSize=12;html=1;endArrow=ERoneToMany;rounded=0;exitX=1;exitY=0.5;exitDx=0;exitDy=0;entryX=0.5;entryY=1;entryDx=0;entryDy=0;" parent="1" source="ywtn9SBlBVrEBoDn3AKO-37" target="ywtn9SBlBVrEBoDn3AKO-36" edge="1">
          <mxGeometry width="100" height="100" relative="1" as="geometry">
            <mxPoint x="370" y="322" as="sourcePoint" />
            <mxPoint x="470" y="222" as="targetPoint" />
          </mxGeometry>
        </mxCell>
        <mxCell id="ywtn9SBlBVrEBoDn3AKO-40" value="Contract" style="whiteSpace=wrap;html=1;align=center;" parent="1" vertex="1">
          <mxGeometry x="608" y="35" width="100" height="40" as="geometry" />
        </mxCell>
        <mxCell id="ywtn9SBlBVrEBoDn3AKO-41" value="CO" style="shape=rhombus;perimeter=rhombusPerimeter;whiteSpace=wrap;html=1;align=center;" parent="1" vertex="1">
          <mxGeometry x="528" y="90" width="120" height="60" as="geometry" />
        </mxCell>
        <mxCell id="ywtn9SBlBVrEBoDn3AKO-42" value="" style="edgeStyle=orthogonalEdgeStyle;fontSize=12;html=1;endArrow=ERmandOne;rounded=0;exitX=0.5;exitY=1;exitDx=0;exitDy=0;entryX=1;entryY=0;entryDx=0;entryDy=0;" parent="1" source="ywtn9SBlBVrEBoDn3AKO-41" target="ywtn9SBlBVrEBoDn3AKO-1" edge="1">
          <mxGeometry width="100" height="100" relative="1" as="geometry">
            <mxPoint x="370" y="322" as="sourcePoint" />
            <mxPoint x="470" y="222" as="targetPoint" />
          </mxGeometry>
        </mxCell>
        <mxCell id="ywtn9SBlBVrEBoDn3AKO-43" value="" style="fontSize=12;html=1;endArrow=ERmany;rounded=0;exitX=0.5;exitY=0;exitDx=0;exitDy=0;entryX=0;entryY=0.5;entryDx=0;entryDy=0;edgeStyle=orthogonalEdgeStyle;" parent="1" source="ywtn9SBlBVrEBoDn3AKO-41" target="ywtn9SBlBVrEBoDn3AKO-40" edge="1">
          <mxGeometry width="100" height="100" relative="1" as="geometry">
            <mxPoint x="370" y="322" as="sourcePoint" />
            <mxPoint x="470" y="222" as="targetPoint" />
          </mxGeometry>
        </mxCell>
        <mxCell id="ubPdOSPQCImqJmyx25F6-1" value="Degree" style="whiteSpace=wrap;html=1;align=center;" vertex="1" parent="1">
          <mxGeometry x="408" y="569" width="100" height="40" as="geometry" />
        </mxCell>
        <mxCell id="ubPdOSPQCImqJmyx25F6-2" value="CO" style="shape=rhombus;perimeter=rhombusPerimeter;whiteSpace=wrap;html=1;align=center;" vertex="1" parent="1">
          <mxGeometry x="397" y="420.5" width="120" height="60" as="geometry" />
        </mxCell>
        <mxCell id="ubPdOSPQCImqJmyx25F6-5" value="" style="fontSize=12;html=1;endArrow=ERmandOne;rounded=0;exitX=0.5;exitY=1;exitDx=0;exitDy=0;entryX=0.5;entryY=0;entryDx=0;entryDy=0;" edge="1" parent="1" source="ubPdOSPQCImqJmyx25F6-2" target="ubPdOSPQCImqJmyx25F6-1">
          <mxGeometry width="100" height="100" relative="1" as="geometry">
            <mxPoint x="280" y="598" as="sourcePoint" />
            <mxPoint x="380" y="498" as="targetPoint" />
          </mxGeometry>
        </mxCell>
        <mxCell id="ubPdOSPQCImqJmyx25F6-7" value="" style="fontSize=12;html=1;endArrow=ERoneToMany;rounded=0;exitX=0.5;exitY=0;exitDx=0;exitDy=0;entryX=0.32;entryY=1.013;entryDx=0;entryDy=0;entryPerimeter=0;" edge="1" parent="1" source="ubPdOSPQCImqJmyx25F6-2" target="ywtn9SBlBVrEBoDn3AKO-1">
          <mxGeometry width="100" height="100" relative="1" as="geometry">
            <mxPoint x="452" y="540" as="sourcePoint" />
            <mxPoint x="507" y="527" as="targetPoint" />
          </mxGeometry>
        </mxCell>
      </root>
    </mxGraphModel>
  </diagram>
  <diagram id="hR1ifxgwkSyQT71KzXFf" name="Trang-4">
    <mxGraphModel dx="786" dy="459" grid="0" gridSize="10" guides="1" tooltips="1" connect="1" arrows="1" fold="1" page="0" pageScale="1" pageWidth="827" pageHeight="1169" math="0" shadow="0">
      <root>
        <mxCell id="0" />
        <mxCell id="1" parent="0" />
        <mxCell id="e4s2l3k4nFX_8PjuAxXI-1" value="Client" style="whiteSpace=wrap;html=1;aspect=fixed;" vertex="1" parent="1">
          <mxGeometry x="120" y="170" width="80" height="80" as="geometry" />
        </mxCell>
        <mxCell id="e4s2l3k4nFX_8PjuAxXI-2" value="" style="endArrow=classic;html=1;rounded=0;exitX=1;exitY=0.5;exitDx=0;exitDy=0;entryX=0;entryY=0.5;entryDx=0;entryDy=0;" edge="1" parent="1" source="e4s2l3k4nFX_8PjuAxXI-1" target="e4s2l3k4nFX_8PjuAxXI-3">
          <mxGeometry width="50" height="50" relative="1" as="geometry">
            <mxPoint x="380" y="270" as="sourcePoint" />
            <mxPoint x="260" y="210" as="targetPoint" />
          </mxGeometry>
        </mxCell>
        <mxCell id="e4s2l3k4nFX_8PjuAxXI-3" value="API Gateway" style="whiteSpace=wrap;html=1;aspect=fixed;" vertex="1" parent="1">
          <mxGeometry x="260" y="170" width="80" height="80" as="geometry" />
        </mxCell>
        <mxCell id="e4s2l3k4nFX_8PjuAxXI-4" value="" style="endArrow=classic;html=1;rounded=0;exitX=1;exitY=0.25;exitDx=0;exitDy=0;entryX=0;entryY=0.75;entryDx=0;entryDy=0;" edge="1" parent="1" source="e4s2l3k4nFX_8PjuAxXI-3" target="e4s2l3k4nFX_8PjuAxXI-8">
          <mxGeometry width="50" height="50" relative="1" as="geometry">
            <mxPoint x="380" y="270" as="sourcePoint" />
            <mxPoint x="430" y="140" as="targetPoint" />
          </mxGeometry>
        </mxCell>
        <mxCell id="e4s2l3k4nFX_8PjuAxXI-5" value="" style="endArrow=classic;html=1;rounded=0;exitX=0.25;exitY=0;exitDx=0;exitDy=0;entryX=0.25;entryY=1;entryDx=0;entryDy=0;" edge="1" parent="1" source="e4s2l3k4nFX_8PjuAxXI-3" target="e4s2l3k4nFX_8PjuAxXI-7">
          <mxGeometry width="50" height="50" relative="1" as="geometry">
            <mxPoint x="380" y="270" as="sourcePoint" />
            <mxPoint x="280" y="110" as="targetPoint" />
          </mxGeometry>
        </mxCell>
        <mxCell id="e4s2l3k4nFX_8PjuAxXI-6" value="" style="endArrow=classic;html=1;rounded=0;exitX=0.625;exitY=0.975;exitDx=0;exitDy=0;exitPerimeter=0;" edge="1" parent="1" source="e4s2l3k4nFX_8PjuAxXI-7">
          <mxGeometry width="50" height="50" relative="1" as="geometry">
            <mxPoint x="307" y="110" as="sourcePoint" />
            <mxPoint x="310" y="170" as="targetPoint" />
          </mxGeometry>
        </mxCell>
        <mxCell id="e4s2l3k4nFX_8PjuAxXI-7" value="Authentication&lt;div&gt;/ Authorization&lt;/div&gt;" style="whiteSpace=wrap;html=1;aspect=fixed;" vertex="1" parent="1">
          <mxGeometry x="260" y="30" width="80" height="80" as="geometry" />
        </mxCell>
        <mxCell id="e4s2l3k4nFX_8PjuAxXI-8" value="Account Service" style="whiteSpace=wrap;html=1;aspect=fixed;" vertex="1" parent="1">
          <mxGeometry x="450" y="50" width="80" height="80" as="geometry" />
        </mxCell>
        <mxCell id="e4s2l3k4nFX_8PjuAxXI-9" value="" style="endArrow=classic;html=1;rounded=0;exitX=1;exitY=0.383;exitDx=0;exitDy=0;exitPerimeter=0;entryX=0;entryY=0.392;entryDx=0;entryDy=0;entryPerimeter=0;" edge="1" parent="1" source="e4s2l3k4nFX_8PjuAxXI-3" target="e4s2l3k4nFX_8PjuAxXI-10">
          <mxGeometry width="50" height="50" relative="1" as="geometry">
            <mxPoint x="380" y="270" as="sourcePoint" />
            <mxPoint x="450" y="200" as="targetPoint" />
          </mxGeometry>
        </mxCell>
        <mxCell id="e4s2l3k4nFX_8PjuAxXI-10" value="Employee Service" style="whiteSpace=wrap;html=1;aspect=fixed;" vertex="1" parent="1">
          <mxGeometry x="450" y="170" width="80" height="80" as="geometry" />
        </mxCell>
        <mxCell id="e4s2l3k4nFX_8PjuAxXI-12" value="Attendance Service" style="whiteSpace=wrap;html=1;aspect=fixed;" vertex="1" parent="1">
          <mxGeometry x="450" y="290" width="80" height="80" as="geometry" />
        </mxCell>
        <mxCell id="e4s2l3k4nFX_8PjuAxXI-13" value="" style="endArrow=classic;html=1;rounded=0;exitX=1;exitY=0.5;exitDx=0;exitDy=0;entryX=-0.017;entryY=0.342;entryDx=0;entryDy=0;entryPerimeter=0;" edge="1" parent="1" source="e4s2l3k4nFX_8PjuAxXI-3" target="e4s2l3k4nFX_8PjuAxXI-12">
          <mxGeometry width="50" height="50" relative="1" as="geometry">
            <mxPoint x="380" y="270" as="sourcePoint" />
            <mxPoint x="430" y="220" as="targetPoint" />
          </mxGeometry>
        </mxCell>
        <mxCell id="e4s2l3k4nFX_8PjuAxXI-14" value="" style="endArrow=classic;html=1;rounded=0;exitX=1;exitY=0.75;exitDx=0;exitDy=0;entryX=0.5;entryY=0;entryDx=0;entryDy=0;" edge="1" parent="1" source="e4s2l3k4nFX_8PjuAxXI-3" target="e4s2l3k4nFX_8PjuAxXI-15">
          <mxGeometry width="50" height="50" relative="1" as="geometry">
            <mxPoint x="380" y="270" as="sourcePoint" />
            <mxPoint x="380" y="340" as="targetPoint" />
          </mxGeometry>
        </mxCell>
        <mxCell id="e4s2l3k4nFX_8PjuAxXI-15" value="Payroll Service" style="whiteSpace=wrap;html=1;aspect=fixed;" vertex="1" parent="1">
          <mxGeometry x="350" y="350" width="80" height="80" as="geometry" />
        </mxCell>
      </root>
    </mxGraphModel>
  </diagram>
</mxfile>
